<?xml version="1.0" standalone="no"?>
<!DOCTYPE svg PUBLIC "-//W3C//DTD SVG 20010904//EN"
 "http://www.w3.org/TR/2001/REC-SVG-20010904/DTD/svg10.dtd">
<svg version="1.0" xmlns="http://www.w3.org/2000/svg"
 width="1238.000000pt" height="769.000000pt" viewBox="0 0 1238.000000 769.000000"
 preserveAspectRatio="xMidYMid meet">

<g transform="translate(0.000000,769.000000) scale(0.100000,-0.100000)"
fill="#000000" stroke="none">
<path d="M6025 7679 c-449 -43 -881 -279 -1211 -662 -238 -276 -431 -640 -538
-1015 -214 -744 -139 -1588 199 -2247 199 -387 489 -713 813 -915 559 -346
1225 -346 1785 1 121 75 222 155 336 264 893 859 1060 2463 374 3590 -179 293
-439 561 -703 726 -239 148 -488 233 -760 258 -128 12 -165 12 -295 0z m423
-200 c206 -39 425 -135 612 -267 122 -86 326 -288 424 -421 492 -664 647
-1586 415 -2460 -131 -494 -418 -953 -771 -1234 -380 -302 -856 -413 -1293
-302 -543 137 -1015 594 -1268 1225 -147 367 -209 695 -208 1115 0 637 189
1231 533 1676 412 533 979 777 1556 668z"/>
<path d="M5698 6973 l-3 -77 -90 -36 -90 -37 3 -87 c2 -48 1 -98 -2 -111 -4
-14 -75 -83 -183 -175 -117 -100 -187 -167 -204 -197 -15 -24 -46 -104 -70
-176 -53 -158 -60 -169 -314 -472 -104 -125 -201 -243 -215 -262 -57 -81 -14
-223 99 -324 61 -55 189 -121 268 -139 83 -19 102 -8 248 148 71 75 136 142
144 148 9 6 95 21 191 33 177 23 239 41 310 91 52 37 53 22 6 -75 -65 -136
-165 -248 -396 -446 -150 -129 -188 -168 -249 -257 -126 -187 -233 -498 -219
-642 l3 -35 1252 -3 1252 -2 15 28 c21 40 71 217 105 372 132 596 91 1217
-114 1705 -226 540 -581 880 -1024 981 -150 34 -268 39 -440 20 l-144 -16 -63
60 c-34 33 -65 60 -68 60 -3 0 -6 -35 -8 -77z m603 -178 c143 -25 304 -90 443
-179 351 -225 620 -743 712 -1371 25 -169 25 -527 1 -685 -23 -145 -49 -264
-88 -407 l-31 -113 -194 0 c-107 0 -194 2 -194 5 0 3 22 63 49 133 87 225 130
483 138 827 7 270 -8 421 -62 631 -120 469 -344 775 -682 931 -88 41 -229 78
-328 87 -113 11 -111 10 -134 71 -34 90 -42 85 133 85 90 0 188 -6 237 -15z
m-591 -90 c0 -36 -4 -57 -12 -59 -67 -21 -68 -20 -68 37 0 49 2 54 28 64 49
19 52 17 52 -42z m-140 -540 c0 -46 -26 -91 -63 -108 -39 -19 -117 -23 -117
-7 0 18 92 104 130 122 46 23 50 22 50 -7z m506 -341 c23 -125 -48 -267 -171
-340 -44 -25 -156 -57 -183 -52 -12 2 3 17 46 46 122 84 235 221 269 330 9 28
20 52 24 52 5 0 11 -16 15 -36z m754 -181 c28 -75 66 -271 86 -443 19 -170 15
-422 -11 -565 -29 -163 -99 -388 -139 -450 l-16 -25 -311 0 c-299 0 -309 1
-300 19 33 61 124 106 271 136 47 9 95 23 107 31 35 22 111 137 150 225 48
112 89 280 109 451 13 116 15 197 11 428 -5 250 -4 283 9 266 7 -11 23 -44 34
-73z m-1920 -519 c0 -29 -4 -35 -32 -42 -18 -5 -34 -8 -35 -7 -2 1 6 19 17 40
11 22 20 46 20 53 0 12 3 12 15 2 8 -7 15 -28 15 -46z"/>
<path d="M274 3101 c-102 -25 -206 -118 -243 -217 -21 -55 -21 -59 -19 -1342
l3 -1287 28 -53 c37 -70 97 -128 166 -161 l56 -26 5912 -3 5912 -2 58 22 c80
30 171 121 202 201 l21 59 -2 1281 -3 1282 -21 46 c-26 55 -85 123 -135 155
-91 57 48 54 -2249 54 l-2107 0 -33 -42 c-67 -84 -247 -262 -345 -341 -282
-228 -581 -372 -920 -444 -122 -26 -146 -27 -375 -27 -230 0 -253 1 -375 27
-315 67 -587 192 -849 388 -122 92 -288 248 -382 360 l-67 79 -2101 -1 c-1156
-1 -2115 -4 -2132 -8z m11421 -627 c94 -44 146 -151 124 -254 -36 -170 -243
-238 -371 -122 -165 148 -48 419 170 397 24 -3 59 -12 77 -21z m-7646 -650
c93 -23 210 -86 282 -153 l62 -57 -82 -92 c-46 -51 -85 -92 -88 -92 -3 0 -28
21 -55 46 -90 84 -215 123 -337 103 -207 -33 -332 -192 -319 -407 10 -154 79
-262 207 -325 60 -29 74 -32 161 -32 86 0 101 3 162 32 37 17 90 53 117 78
l50 47 85 -84 c47 -45 86 -88 86 -95 0 -17 -99 -102 -164 -142 -104 -62 -178
-83 -312 -89 -101 -4 -132 -1 -197 17 -126 34 -212 83 -299 171 -132 132 -185
278 -175 484 8 177 60 299 177 417 82 82 190 144 300 173 76 20 257 20 339 0z
m7167 7 c125 -24 229 -82 338 -189 113 -111 169 -260 169 -447 -1 -183 -55
-316 -183 -446 -156 -158 -384 -222 -615 -174 -133 28 -293 124 -368 220 -209
270 -173 675 80 894 58 51 186 115 268 135 69 17 240 20 311 7z m-9681 -136
l0 -120 -312 -3 -313 -2 0 -130 0 -130 280 0 280 0 0 -115 0 -115 -275 0 -275
0 0 -119 c0 -66 -3 -126 -6 -135 -6 -14 27 -16 320 -16 l327 0 -3 -117 -3
-118 -455 0 -455 0 -3 610 c-1 336 0 616 3 623 3 10 98 12 447 10 l443 -3 0
-120z m547 -377 l3 -503 268 -3 268 -2 -3 -118 -3 -117 -400 0 -400 0 -3 617
-2 617 102 4 c57 1 118 4 135 5 l33 2 2 -502z m3426 -105 c144 -335 264 -616
268 -625 6 -17 -5 -18 -139 -18 l-144 0 -56 133 -55 132 -268 0 -268 0 -56
-130 -56 -130 -143 -3 c-137 -2 -142 -2 -136 17 23 73 519 1209 532 1219 11 8
57 12 139 12 l121 0 261 -607z m1095 583 c119 -33 183 -83 225 -174 66 -144
18 -319 -103 -376 -50 -24 -50 -32 -1 -46 68 -19 136 -77 171 -145 26 -51 30
-69 30 -139 0 -87 -11 -125 -58 -194 -84 -125 -200 -152 -654 -152 l-273 0 0
626 0 626 303 -5 c235 -4 315 -8 360 -21z m1226 -53 c21 -43 130 -289 241
-548 112 -259 216 -499 231 -535 16 -36 29 -71 29 -77 0 -10 -34 -13 -140 -13
-163 0 -150 -9 -200 135 -51 144 -29 135 -325 135 -291 0 -266 9 -314 -113
-18 -43 -40 -96 -51 -118 l-20 -39 -140 0 c-77 0 -140 1 -140 3 0 2 119 280
264 618 l265 614 68 6 c37 3 96 6 130 7 l63 2 39 -77z m1949 -430 l2 -503 265
0 265 0 0 -120 0 -120 -400 0 -400 0 0 620 0 619 68 4 c37 2 96 3 132 3 l65
-1 3 -502z m-1018 -3 l0 -500 268 -2 267 -3 0 -115 0 -115 -396 -3 -396 -2 -6
611 c-4 336 -5 615 -1 620 3 5 63 9 135 9 l129 0 0 -500z"/>
<path d="M11550 2453 c-93 -34 -140 -94 -140 -180 0 -112 77 -193 184 -193 82
0 142 39 177 115 30 65 20 139 -28 196 -45 53 -136 82 -193 62z m94 -73 c35
-13 50 -48 36 -84 -5 -15 -19 -30 -30 -33 -11 -3 -20 -7 -20 -9 0 -2 16 -26
35 -53 41 -57 42 -61 12 -61 -16 0 -28 11 -42 36 -21 39 -60 74 -81 74 -10 0
-14 -15 -14 -55 0 -48 -2 -55 -20 -55 -19 0 -20 7 -20 125 l0 125 59 0 c33 0
71 -4 85 -10z"/>
<path d="M11540 2316 c0 -35 1 -36 38 -36 48 0 65 12 60 41 -3 21 -9 24 -50
27 l-48 3 0 -35z"/>
<path d="M10980 1594 c-244 -66 -352 -351 -227 -603 28 -56 102 -133 153 -159
59 -30 148 -44 216 -32 81 13 139 41 197 95 228 213 138 624 -154 700 -72 18
-113 18 -185 -1z"/>
<path d="M5100 1421 c-19 -37 -140 -322 -140 -332 0 -5 69 -9 156 -9 l155 0
-7 23 c-12 40 -117 281 -135 311 -17 28 -17 28 -29 7z"/>
<path d="M6210 1451 l0 -141 113 0 c129 0 176 10 219 48 39 35 48 100 21 152
-29 57 -76 74 -225 78 l-128 4 0 -141z"/>
<path d="M6210 1034 c0 -38 3 -107 7 -153 l6 -83 156 3 c175 4 205 14 249 80
27 39 26 101 -3 145 -33 51 -94 67 -262 72 l-153 4 0 -68z"/>
<path d="M7644 1403 c-9 -21 -43 -100 -75 -176 -32 -77 -59 -141 -59 -143 0
-2 70 -4 155 -4 85 0 155 3 155 8 0 16 -146 352 -153 352 -4 0 -15 -17 -23
-37z"/>
</g>
</svg>
